<svg width="21" height="16" viewBox="0 0 21 16" fill="none" xmlns="http://www.w3.org/2000/svg">
<path d="M17.4419 1.52317C16.1473 0.917444 14.763 0.477226 13.3157 0.226562C13.138 0.547905 12.9304 0.980117 12.7872 1.32394C11.2487 1.09258 9.72445 1.09258 8.2143 1.32394C8.07116 0.980117 7.8588 0.547905 7.67947 0.226562C6.23067 0.477226 4.8448 0.919062 3.55016 1.52638C0.938869 5.47238 0.230991 9.32038 0.584931 13.1137C2.31688 14.4071 3.99534 15.1928 5.64548 15.7069C6.05291 15.1462 6.41628 14.5501 6.72931 13.9219C6.13313 13.6954 5.56211 13.4158 5.02256 13.0912C5.1657 12.9852 5.30571 12.8743 5.44098 12.7603C8.73183 14.2995 12.3074 14.2995 15.5589 12.7603C15.6958 12.8743 15.8358 12.9852 15.9774 13.0912C15.4362 13.4174 14.8637 13.6969 14.2675 13.9235C14.5805 14.5501 14.9423 15.1478 15.3513 15.7085C17.003 15.1944 18.683 14.4087 20.415 13.1137C20.8303 8.71627 19.7056 4.90361 17.4419 1.52317ZM7.17765 10.7809C6.18977 10.7809 5.37963 9.85861 5.37963 8.73554C5.37963 7.61247 6.17247 6.68864 7.17765 6.68864C8.18285 6.68864 8.99297 7.61086 8.97567 8.73554C8.97723 9.85861 8.18285 10.7809 7.17765 10.7809ZM13.8223 10.7809C12.8344 10.7809 12.0243 9.85861 12.0243 8.73554C12.0243 7.61247 12.8171 6.68864 13.8223 6.68864C14.8275 6.68864 15.6376 7.61086 15.6203 8.73554C15.6203 9.85861 14.8275 10.7809 13.8223 10.7809Z" fill="white"/>
</svg>
