<svg width="37" height="37" viewBox="0 0 37 37" fill="none" xmlns="http://www.w3.org/2000/svg">
<path d="M28.125 1.40625C28.125 2.67188 27.9844 2.8125 26.7188 2.8125C25.4531 2.8125 25.3125 2.95312 25.3125 4.21875C25.3125 5.48438 25.1719 5.625 23.9062 5.625C22.6406 5.625 22.5 5.76562 22.5 7.03125C22.5 8.29688 22.3594 8.4375 21.0938 8.4375C19.8281 8.4375 19.6875 8.57812 19.6875 9.84375C19.6875 11.1094 19.5469 11.25 18.2812 11.25C17.0156 11.25 16.875 11.3906 16.875 12.6562C16.875 13.9219 16.7344 14.0625 15.4688 14.0625C14.2031 14.0625 14.0625 14.2031 14.0625 15.4688C14.0625 16.7344 13.9219 16.875 12.6562 16.875C11.3906 16.875 11.25 16.7344 11.25 15.4688C11.25 14.2031 11.1094 14.0625 9.84375 14.0625C8.57812 14.0625 8.4375 13.9219 8.4375 12.6562V11.25H5.625H2.8125V14.0625V16.875H4.21875H5.625V19.6875V22.5H7.03125C8.29688 22.5 8.4375 22.6406 8.4375 23.9062C8.4375 25.1719 8.29688 25.3125 7.03125 25.3125C5.76562 25.3125 5.625 25.4531 5.625 26.7188V28.125H2.8125H0V32.3438V36.5625H4.21875H8.4375V33.75V30.9375H9.84375C11.1094 30.9375 11.25 30.7969 11.25 29.5312C11.25 28.2656 11.3906 28.125 12.6562 28.125C13.9219 28.125 14.0625 28.2656 14.0625 29.5312V30.9375H16.875H19.6875V32.3438V33.75H22.5H25.3125V30.9375V28.125H23.9062C22.6406 28.125 22.5 27.9844 22.5 26.7188C22.5 25.4531 22.3594 25.3125 21.0938 25.3125C19.8281 25.3125 19.6875 25.1719 19.6875 23.9062C19.6875 22.6406 19.8281 22.5 21.0938 22.5C22.3594 22.5 22.5 22.3594 22.5 21.0938C22.5 19.8281 22.6406 19.6875 23.9062 19.6875C25.1719 19.6875 25.3125 19.5469 25.3125 18.2812C25.3125 17.0156 25.4531 16.875 26.7188 16.875C27.9844 16.875 28.125 16.7344 28.125 15.4688C28.125 14.2031 28.2656 14.0625 29.5312 14.0625C30.7969 14.0625 30.9375 13.9219 30.9375 12.6562C30.9375 11.3906 31.0781 11.25 32.3438 11.25C33.6094 11.25 33.75 11.1094 33.75 9.84375C33.75 8.57812 33.8906 8.4375 35.1562 8.4375H36.5625V4.21875V0H32.3438H28.125V1.40625ZM33.75 5.625V8.4375H32.3438C31.0781 8.4375 30.9375 8.57812 30.9375 9.84375C30.9375 11.1094 30.7969 11.25 29.5312 11.25C28.2656 11.25 28.125 11.3906 28.125 12.6562C28.125 13.9219 27.9844 14.0625 26.7188 14.0625C25.4531 14.0625 25.3125 14.2031 25.3125 15.4688C25.3125 16.7344 25.1719 16.875 23.9062 16.875C22.6406 16.875 22.5 17.0156 22.5 18.2812C22.5 19.5469 22.3594 19.6875 21.0938 19.6875C19.8281 19.6875 19.6875 19.8281 19.6875 21.0938V22.5H16.875H14.0625V23.9062V25.3125H16.875H19.6875V26.7188C19.6875 27.9844 19.8281 28.125 21.0938 28.125C22.3594 28.125 22.5 28.2656 22.5 29.5312C22.5 30.7969 22.3594 30.9375 21.0938 30.9375C19.8281 30.9375 19.6875 30.7969 19.6875 29.5312V28.125H16.875H14.0625V26.7188C14.0625 25.4531 13.9219 25.3125 12.6562 25.3125C11.3906 25.3125 11.25 25.4531 11.25 26.7188C11.25 27.9844 11.1094 28.125 9.84375 28.125C8.57812 28.125 8.4375 27.9844 8.4375 26.7188C8.4375 25.4531 8.57812 25.3125 9.84375 25.3125C11.1094 25.3125 11.25 25.1719 11.25 23.9062C11.25 22.6406 11.1094 22.5 9.84375 22.5H8.4375V19.6875V16.875H7.03125C5.76562 16.875 5.625 16.7344 5.625 15.4688C5.625 14.2031 5.76562 14.0625 7.03125 14.0625C8.29688 14.0625 8.4375 14.2031 8.4375 15.4688C8.4375 16.7344 8.57812 16.875 9.84375 16.875H11.25V19.6875V22.5H12.6562H14.0625V19.6875V16.875H15.4688C16.7344 16.875 16.875 16.7344 16.875 15.4688C16.875 14.2031 17.0156 14.0625 18.2812 14.0625C19.5469 14.0625 19.6875 13.9219 19.6875 12.6562C19.6875 11.3906 19.8281 11.25 21.0938 11.25C22.3594 11.25 22.5 11.1094 22.5 9.84375C22.5 8.57812 22.6406 8.4375 23.9062 8.4375C25.1719 8.4375 25.3125 8.29688 25.3125 7.03125C25.3125 5.76562 25.4531 5.625 26.7188 5.625C27.9844 5.625 28.125 5.48438 28.125 4.21875V2.8125H30.9375H33.75V5.625ZM5.625 32.3438C5.625 33.6094 5.48438 33.75 4.21875 33.75C2.95312 33.75 2.8125 33.6094 2.8125 32.3438C2.8125 31.0781 2.95312 30.9375 4.21875 30.9375C5.48438 30.9375 5.625 31.0781 5.625 32.3438Z" fill="black"/>
</svg>
